<mxfile host="app.diagrams.net" modified="2023-09-01T16:44:13.285Z" agent="Mozilla/5.0 (Windows NT 10.0; Win64; x64) AppleWebKit/537.36 (KHTML, like Gecko) Chrome/116.0.0.0 Safari/537.36" etag="x_pzpkGYZZS2JKFHdb4a" version="21.7.2" type="device">
  <diagram name="Страница — 1" id="bMZQUD8Q7Lqpo5jMVCOP">
    <mxGraphModel dx="1434" dy="758" grid="1" gridSize="10" guides="1" tooltips="1" connect="1" arrows="1" fold="1" page="1" pageScale="1" pageWidth="827" pageHeight="1169" math="0" shadow="0">
      <root>
        <mxCell id="0" />
        <mxCell id="1" parent="0" />
        <mxCell id="QzfZLcDHroeN8IoDOXcJ-1" value="Класс:Роль:Имя" style="html=1;whiteSpace=wrap;sketch=1;hachureGap=4;jiggle=2;curveFitting=1;fontFamily=Architects Daughter;fontSource=https%3A%2F%2Ffonts.googleapis.com%2Fcss%3Ffamily%3DArchitects%2BDaughter;fontSize=20;" vertex="1" parent="1">
          <mxGeometry x="80" y="200" width="210" height="70" as="geometry" />
        </mxCell>
        <mxCell id="QzfZLcDHroeN8IoDOXcJ-3" value="Communication diagram" style="text;align=center;fontStyle=1;verticalAlign=middle;spacingLeft=3;spacingRight=3;strokeColor=none;rotatable=0;points=[[0,0.5],[1,0.5]];portConstraint=eastwest;html=1;fontSize=20;fontFamily=Architects Daughter;" vertex="1" parent="1">
          <mxGeometry x="360" y="20" width="80" height="26" as="geometry" />
        </mxCell>
        <mxCell id="QzfZLcDHroeN8IoDOXcJ-4" value="Object" style="html=1;whiteSpace=wrap;sketch=1;hachureGap=4;jiggle=2;curveFitting=1;fontFamily=Architects Daughter;fontSource=https%3A%2F%2Ffonts.googleapis.com%2Fcss%3Ffamily%3DArchitects%2BDaughter;fontSize=20;" vertex="1" parent="1">
          <mxGeometry x="80" y="120" width="110" height="50" as="geometry" />
        </mxCell>
        <mxCell id="QzfZLcDHroeN8IoDOXcJ-5" value="" style="endArrow=classic;html=1;rounded=0;sketch=1;hachureGap=4;jiggle=2;curveFitting=1;fontFamily=Architects Daughter;fontSource=https%3A%2F%2Ffonts.googleapis.com%2Fcss%3Ffamily%3DArchitects%2BDaughter;fontSize=16;exitX=1.005;exitY=0.6;exitDx=0;exitDy=0;exitPerimeter=0;" edge="1" parent="1" source="QzfZLcDHroeN8IoDOXcJ-1">
          <mxGeometry width="50" height="50" relative="1" as="geometry">
            <mxPoint x="390" y="420" as="sourcePoint" />
            <mxPoint x="560" y="242" as="targetPoint" />
          </mxGeometry>
        </mxCell>
        <mxCell id="QzfZLcDHroeN8IoDOXcJ-6" value="&lt;font style=&quot;&quot;&gt;&lt;font style=&quot;font-size: 30px;&quot;&gt;1.1.1&amp;nbsp;&lt;/font&gt;&lt;font style=&quot;font-size: 15px;&quot;&gt;- &lt;/font&gt;&lt;/font&gt;&lt;font style=&quot;font-size: 15px;&quot;&gt;н&lt;/font&gt;&lt;font style=&quot;font-size: 15px;&quot;&gt;омер/&lt;/font&gt;&lt;font style=&quot;font-size: 15px;&quot;&gt;подномер операции&amp;nbsp;&lt;/font&gt;" style="text;strokeColor=none;fillColor=none;align=left;verticalAlign=top;spacingLeft=4;spacingRight=4;overflow=hidden;rotatable=0;points=[[0,0.5],[1,0.5]];portConstraint=eastwest;whiteSpace=wrap;html=1;fontSize=30;fontFamily=Architects Daughter;" vertex="1" parent="1">
          <mxGeometry x="400" y="240" width="260" height="120" as="geometry" />
        </mxCell>
        <mxCell id="QzfZLcDHroeN8IoDOXcJ-7" value="Message" style="text;align=center;fontStyle=1;verticalAlign=middle;spacingLeft=3;spacingRight=3;strokeColor=none;rotatable=0;points=[[0,0.5],[1,0.5]];portConstraint=eastwest;html=1;fontSize=20;fontFamily=Architects Daughter;" vertex="1" parent="1">
          <mxGeometry x="380" y="200" width="80" height="26" as="geometry" />
        </mxCell>
        <mxCell id="QzfZLcDHroeN8IoDOXcJ-10" value="::Storage" style="html=1;whiteSpace=wrap;sketch=1;hachureGap=4;jiggle=2;curveFitting=1;fontFamily=Architects Daughter;fontSource=https%3A%2F%2Ffonts.googleapis.com%2Fcss%3Ffamily%3DArchitects%2BDaughter;fontSize=20;" vertex="1" parent="1">
          <mxGeometry x="80" y="590" width="200" height="120" as="geometry" />
        </mxCell>
        <mxCell id="QzfZLcDHroeN8IoDOXcJ-11" value="1.1.1 Запросить список товаров" style="endArrow=classic;html=1;rounded=0;sketch=1;hachureGap=4;jiggle=2;curveFitting=1;fontFamily=Architects Daughter;fontSource=https%3A%2F%2Ffonts.googleapis.com%2Fcss%3Ffamily%3DArchitects%2BDaughter;fontSize=16;entryX=0.5;entryY=0;entryDx=0;entryDy=0;" edge="1" parent="1" target="QzfZLcDHroeN8IoDOXcJ-10">
          <mxGeometry x="-0.4545" width="50" height="50" relative="1" as="geometry">
            <mxPoint x="180" y="480" as="sourcePoint" />
            <mxPoint x="440" y="400" as="targetPoint" />
            <mxPoint as="offset" />
          </mxGeometry>
        </mxCell>
        <mxCell id="QzfZLcDHroeN8IoDOXcJ-12" value="1.2.2 Сообщить список&lt;br&gt;товаров" style="endArrow=classic;html=1;rounded=0;sketch=1;hachureGap=4;jiggle=2;curveFitting=1;fontFamily=Architects Daughter;fontSource=https%3A%2F%2Ffonts.googleapis.com%2Fcss%3Ffamily%3DArchitects%2BDaughter;fontSize=16;entryX=0.5;entryY=0;entryDx=0;entryDy=0;" edge="1" parent="1">
          <mxGeometry width="50" height="50" relative="1" as="geometry">
            <mxPoint x="179.5" y="710" as="sourcePoint" />
            <mxPoint x="179.5" y="820" as="targetPoint" />
          </mxGeometry>
        </mxCell>
        <mxCell id="QzfZLcDHroeN8IoDOXcJ-14" value="1.2.1 Составить список товаров" style="html=1;align=left;spacingLeft=2;endArrow=block;rounded=0;edgeStyle=orthogonalEdgeStyle;curved=0;rounded=0;sketch=1;hachureGap=4;jiggle=2;curveFitting=1;fontFamily=Architects Daughter;fontSource=https%3A%2F%2Ffonts.googleapis.com%2Fcss%3Ffamily%3DArchitects%2BDaughter;fontSize=16;entryX=1;entryY=0.25;entryDx=0;entryDy=0;exitX=0.785;exitY=-0.008;exitDx=0;exitDy=0;exitPerimeter=0;" edge="1" target="QzfZLcDHroeN8IoDOXcJ-10" parent="1" source="QzfZLcDHroeN8IoDOXcJ-10">
          <mxGeometry x="-0.8976" y="-13" relative="1" as="geometry">
            <mxPoint x="310" y="560" as="sourcePoint" />
            <Array as="points">
              <mxPoint x="237" y="550" />
              <mxPoint x="390" y="550" />
              <mxPoint x="390" y="620" />
            </Array>
            <mxPoint x="315" y="590" as="targetPoint" />
            <mxPoint as="offset" />
          </mxGeometry>
        </mxCell>
        <mxCell id="QzfZLcDHroeN8IoDOXcJ-15" value="Пакет:&lt;br style=&quot;border-color: var(--border-color);&quot;&gt;описание" style="shape=card;whiteSpace=wrap;html=1;sketch=1;hachureGap=4;jiggle=2;curveFitting=1;fontFamily=Architects Daughter;fontSource=https%3A%2F%2Ffonts.googleapis.com%2Fcss%3Ffamily%3DArchitects%2BDaughter;fontSize=20;" vertex="1" parent="1">
          <mxGeometry x="80" y="320" width="160" height="80" as="geometry" />
        </mxCell>
      </root>
    </mxGraphModel>
  </diagram>
</mxfile>
